<?xml version="1.0" encoding="utf-8"?>
<!-- Generator: Adobe Illustrator 27.2.0, SVG Export Plug-In . SVG Version: 6.00 Build 0)  -->
<svg version="1.1" id="Layer_1" xmlns="http://www.w3.org/2000/svg" xmlns:xlink="http://www.w3.org/1999/xlink" x="0px" y="0px"
	 viewBox="0 0 160 160" style="enable-background:new 0 0 160 160;" xml:space="preserve">
<style type="text/css">
	.st0{fill-rule:evenodd;clip-rule:evenodd;fill:#FFFFFF;}
</style>
<path class="st0" d="M148.2,103.6c-1.6-1-3.4-1.5-5.1-1.7c3.9-9.6,6.5-22.3-2.1-34.8C128,47.9,109.2,38,85.3,37.5
	C78.5,37.3,70.5,37.7,62,38c-9.9,0.4-23,0.9-31.9,0.2c1.8-1,3.7-1.9,5.3-2.7c6.3-3.1,11.2-5.4,9.6-9.7c-0.9-2.5-3.4-3.8-7.6-3.9
	C28.5,21.7,9.4,26.9,6,35.5C4,40.4,3.7,49.7,23.3,58c8.1,3.4,30.8,7.6,39.6,8.5c2.5,0.2,4.4,0.7,5.8,1.3c-2,1.3-4.1,2.7-6.2,4.1
	c-3.6-2.1-9.5-4.5-13.9-1.5c-1.7,1.2-2.7,2.9-2.7,4.8c-0.1,2.4,1.4,4.8,3,6.7C42.5,87.1,37.2,92.1,35.4,96c-2.1,4.8-2.9,12.5,1,20.1
	c4.9,9.6,15.8,16.4,32.3,20c21.6,4.7,40.2,0.5,52.5-6c6.9-3.6,11.7-7.9,14.1-11.8c0.7,0.2,1.5,0.5,2.2,0.7c1.1,0.3,2.1,0.6,3.1,1
	c3.3,1.1,6.9,1,9.6-0.4c0,0,0.1-0.1,0.2-0.1c2.1-1.1,3.6-2.9,4.3-5C156.3,108.7,151.2,105.5,148.2,103.6z M61.3,93.9
	c-2,0-3.5,1.6-3.5,3.5c0,2,1.6,3.6,3.5,3.6s3.5-1.6,3.5-3.6C64.8,95.5,63.2,93.9,61.3,93.9z M94.7,104.6c-2,0-3.5,1.6-3.5,3.5
	c0,2,1.6,3.6,3.5,3.6s3.5-1.6,3.5-3.6C98.2,106.2,96.6,104.6,94.7,104.6z"/>
</svg>
